<?xml version="1.0" encoding="UTF-8" standalone="no"?>
<!-- Created with Inkscape (http://www.inkscape.org/) -->

<svg
   width="178.28529mm"
   height="91.967339mm"
   viewBox="0 0 178.2853 91.967339"
   version="1.1"
   id="svg5"
   xml:space="preserve"
   inkscape:version="1.2.1 (9c6d41e410, 2022-07-14)"
   sodipodi:docname="Logo_USBC4Oldies_2.svg"
   xmlns:inkscape="http://www.inkscape.org/namespaces/inkscape"
   xmlns:sodipodi="http://sodipodi.sourceforge.net/DTD/sodipodi-0.dtd"
   xmlns="http://www.w3.org/2000/svg"
   xmlns:svg="http://www.w3.org/2000/svg"><sodipodi:namedview
     id="namedview7"
     pagecolor="#505050"
     bordercolor="#ffffff"
     borderopacity="1"
     inkscape:showpageshadow="0"
     inkscape:pageopacity="0"
     inkscape:pagecheckerboard="1"
     inkscape:deskcolor="#696969"
     inkscape:document-units="mm"
     showgrid="false"
     showguides="true"
     inkscape:zoom="0.5946522"
     inkscape:cx="357.35174"
     inkscape:cy="239.63587"
     inkscape:window-width="844"
     inkscape:window-height="1008"
     inkscape:window-x="1913"
     inkscape:window-y="0"
     inkscape:window-maximized="0"
     inkscape:current-layer="layer1" /><defs
     id="defs2"><rect
       x="33.633105"
       y="211.88856"
       width="607.91838"
       height="106.78511"
       id="rect959" /><rect
       x="42.041381"
       y="223.66015"
       width="853.44004"
       height="318.67367"
       id="rect849" /></defs><g
     inkscape:label="Calque 1"
     inkscape:groupmode="layer"
     id="layer1"
     transform="translate(-13.638013,-156.90803)"
     style="display:inline"><rect
       style="fill:#eeeeee;fill-opacity:1;stroke:#000000;stroke-width:1.2;stroke-linecap:round;stroke-linejoin:round;stroke-dasharray:none;stroke-opacity:1"
       id="rect356"
       width="177.0853"
       height="90.767342"
       x="14.238013"
       y="157.50803"
       ry="7.236227" /><path
       id="rect356-6"
       style="fill:#800000;fill-opacity:1;stroke:none;stroke-width:1.17111;stroke-linecap:round;stroke-linejoin:round;stroke-dasharray:none;stroke-opacity:1"
       d="m 15.83426,206.06205 c -0.342461,0 -0.676526,0.0302 -1.006337,0.0733 v 34.65746 c 0,3.94123 2.557838,6.93664 7.189647,6.93664 h 161.56551 c 3.96339,0 7.18965,-2.72006 7.18965,-6.93664 v -34.73076 z"
       sodipodi:nodetypes="scsssscs" /><g
       style="fill:#000000;fill-opacity:1"
       id="g144"
       transform="matrix(6.6898717,0,0,6.6898717,48.957919,128.31793)"><path
         d="m 3.5,7.5 a 0.5,0.5 0 0 0 0,1 h 9 a 0.5,0.5 0 0 0 0,-1 z"
         id="path132"
         style="fill:#000000;fill-opacity:1" /><path
         d="M 0,8 A 3,3 0 0 1 3,5 h 10 a 3,3 0 1 1 0,6 H 3 A 3,3 0 0 1 0,8 Z M 3,6 a 2,2 0 1 0 0,4 h 10 a 2,2 0 1 0 0,-4 z"
         id="path134"
         style="fill:#000000;fill-opacity:1" /></g><path
       style="fill:none;stroke:#000000;stroke-width:0.264583px;stroke-linecap:butt;stroke-linejoin:miter;stroke-opacity:1"
       d="M 14.238013,206.06671 H 191.3233"
       id="path2427" /><path
       style="fill:none;stroke:#000000;stroke-width:0.264583px;stroke-linecap:butt;stroke-linejoin:miter;stroke-opacity:1"
       d="M 14.238013,206.06671 H 191.3233"
       id="path2525" /><path
       style="fill:none;stroke:#ff6600;stroke-width:1.16124;stroke-linecap:butt;stroke-linejoin:miter;stroke-dasharray:none;stroke-opacity:1"
       d="M 14.826765,206.06671 H 190.77272"
       id="path2527" /><g
       id="g943"
       transform="matrix(1.0756241,0,0,1.0756241,-7.8933597,-17.177359)"><text
         xml:space="preserve"
         style="font-style:normal;font-weight:normal;font-size:42.2779px;line-height:1.25;font-family:sans-serif;letter-spacing:0px;word-spacing:0px;display:inline;fill:#000000;fill-opacity:1;stroke:none;stroke-width:1.05695"
         x="38.421925"
         y="242.1996"
         id="text958-9"><tspan
           sodipodi:role="line"
           id="tspan956-6"
           style="font-style:normal;font-variant:normal;font-weight:normal;font-stretch:normal;font-family:Yellowtail;-inkscape-font-specification:Yellowtail;fill:#000000;fill-opacity:1;stroke-width:1.05695"
           x="38.421925"
           y="242.1996">4 Oldie's</tspan></text><text
         xml:space="preserve"
         style="font-style:normal;font-weight:normal;font-size:42.2779px;line-height:1.25;font-family:sans-serif;letter-spacing:0px;word-spacing:0px;display:inline;fill:#000000;fill-opacity:1;stroke:none;stroke-width:1.05695"
         x="36.994228"
         y="241.41763"
         id="text958"><tspan
           sodipodi:role="line"
           id="tspan956"
           style="font-style:normal;font-variant:normal;font-weight:normal;font-stretch:normal;font-family:Yellowtail;-inkscape-font-specification:Yellowtail;fill:#ffffff;fill-opacity:1;stroke-width:1.05695"
           x="36.994228"
           y="241.41763">4 Oldie's</tspan></text></g></g></svg>
